<svg xmlns="http://www.w3.org/2000/svg" width="116" height="122" viewBox="0 0 116 122" fill="none">
  <path d="M31.5 46.5C34.7 42.5 39 40.4 44.4 40.4H49.4C53.2 40.4 56.1 43.5 56.1 47.3V49.2C56.1 53 53.2 56.1 49.4 56.1H44.4C39 56.1 34.7 54 31.5 50L29.8 47.9L31.5 46.5Z" stroke="__ACCENT_DEEP__" stroke-width="4.4" stroke-linejoin="round"/>
  <path d="M84.5 46.5C81.3 42.5 77 40.4 71.6 40.4H66.6C62.8 40.4 59.9 43.5 59.9 47.3V49.2C59.9 53 62.8 56.1 66.6 56.1H71.6C77 56.1 81.3 54 84.5 50L86.2 47.9L84.5 46.5Z" stroke="__ACCENT_DEEP__" stroke-width="4.4" stroke-linejoin="round"/>
  <path d="M56.1 48.3H59.9" stroke="__ACCENT_DEEP__" stroke-width="4.2" stroke-linecap="round"/>
</svg>
