<svg xmlns="http://www.w3.org/2000/svg" width="116" height="122" viewBox="0 0 116 122" fill="none">
  <path d="M26 48.5C25.9 28 39.8 12 58.2 12C69.9 12 80.1 18.3 85.8 27.7L89.5 34.1L87.2 36.1C80.2 42.2 71.1 45.6 61.8 45.6H34.1L30.7 51.7L26 48.5Z" fill="__HAIR__"/>
  <path d="M31.8 47.7C35.1 31.5 45.1 18.8 58.4 18.8C70.2 18.8 79.6 27.8 83.3 40.9C79.4 43 74.5 44.1 69.2 44.1H41.1L31.8 47.7Z" fill="__HAIR_SHADE__" opacity=".32"/>
  <path d="M28.7 52.7C31.4 47.3 35.1 44.6 39.9 44.6H70.5C79.5 44.6 86.1 40.5 90.2 32.4C91.8 37.7 91.3 42.8 88.7 47.7C84.7 55.2 76.7 60.3 67.7 60.3H34.6C30.8 60.3 28.4 57.2 28.7 52.7Z" fill="__HAIR__"/>
  <path d="M68.9 19.4C74.9 22.5 79.5 27.9 82 35.1C79.6 34.5 77.3 34.1 75.1 34.1C69.7 34.1 64.9 35.5 60.7 38.2C61.2 31 63.9 24.8 68.9 19.4Z" fill="__HAIR_SHADE__" opacity=".24"/>
</svg>
