<svg xmlns="http://www.w3.org/2000/svg" width="170" height="214" viewBox="0 0 170 214" fill="none">
  <defs>
    <linearGradient id="office-jacket" x1="85" y1="0" x2="85" y2="214" gradientUnits="userSpaceOnUse">
      <stop offset="0" stop-color="__CLOTH_LIGHT__"/>
      <stop offset=".46" stop-color="__CLOTH__"/>
      <stop offset="1" stop-color="__CLOTH_SHADE__"/>
    </linearGradient>
  </defs>
  <path d="M46 16.4C53.8 10.2 65.4 6.6 85 6.6C104.6 6.6 116.2 10.2 124 16.4C132.6 23.3 136.9 35.1 136.9 51.8V137.2C136.9 154.9 132.4 169.7 123.3 181.7C114.2 193.7 101.4 201.4 85 201.4C68.6 201.4 55.8 193.7 46.7 181.7C37.6 169.7 33.1 154.9 33.1 137.2V51.8C33.1 35.1 37.4 23.3 46 16.4Z" fill="url(#office-jacket)"/>
  <path d="M85 18.8L62.8 46.8L76.8 200.6H93.2L107.2 46.8L85 18.8Z" fill="#F8FAFC"/>
  <path d="M85 26.7L73.9 46.9L85 78.3L96.1 46.9L85 26.7Z" fill="__ACCENT__"/>
  <path d="M46.4 18.3L74.5 44.9L60.4 92.7L49.6 73.6L41.3 45.9C41.7 33.7 43.4 24.6 46.4 18.3Z" fill="__CLOTH_DEEP__" opacity=".24"/>
  <path d="M123.6 18.3L95.5 44.9L109.6 92.7L120.4 73.6L128.7 45.9C128.3 33.7 126.6 24.6 123.6 18.3Z" fill="__CLOTH_DEEP__" opacity=".24"/>
  <path d="M59.1 47.3L74.6 45.3L85 79L95.4 45.3L110.9 47.3L101.4 73.8C98.9 80.9 92.1 85.7 84.5 85.7C76.9 85.7 70.1 80.9 67.6 73.8L59.1 47.3Z" fill="__CLOTH_LIGHT__" opacity=".46"/>
  <path d="M60.6 177.5C67.1 183.8 75.3 187 85 187C94.7 187 102.9 183.8 109.4 177.5" stroke="__ACCENT_LIGHT__" stroke-width="7" stroke-linecap="round" opacity=".5"/>
</svg>
