<svg xmlns="http://www.w3.org/2000/svg" width="116" height="122" viewBox="0 0 116 122" fill="none">
  <path d="M27.7 53.4C23 45.7 22 37.1 24.8 27.5C28.9 13.3 43 10 58 10C76 10 89.5 17.7 92.5 33.3C94.3 42.8 92.1 51 85.7 57.8L80.9 53.8C76.2 49.9 70.3 47.8 64.2 47.8H39.9C35.5 47.8 31.3 49.6 27.7 53.4Z" fill="__HAIR__"/>
  <path d="M26.4 39.6C29.4 27.2 39.3 17.4 52.4 15.2C64.8 13 76.7 17.4 84.2 26.8C79.4 24.3 74.1 23.1 68.4 23.1C53.7 23.1 39.8 30.6 26.4 39.6Z" fill="__HAIR_SHADE__" opacity=".26"/>
  <path d="M28.2 54.9C33.1 48.8 39.7 45.7 47.9 45.7H69.5C75 45.7 80.4 47.9 85.2 52.4C82.9 61.4 75.2 68 66.2 68H41.1C33.4 68 27.1 61.9 28.2 54.9Z" fill="__HAIR__"/>
  <circle cx="29.8" cy="53.7" r="7" fill="__HAIR__"/>
  <circle cx="84.8" cy="54.9" r="7.4" fill="__HAIR__"/>
</svg>
