<svg xmlns="http://www.w3.org/2000/svg" width="74" height="40" viewBox="0 0 74 40" fill="none">
  <path d="M10 19.8C15.8 15.4 22.5 13.2 30 13.2H39.6C49.3 13.2 57.7 18.7 61.9 27.5L63 29.8C63.9 31.7 62.6 34 60.5 34H14.2C8.9 34 5.8 27.5 10 19.8Z" fill="__ACCENT_DEEP__"/>
  <path d="M12.9 20.2C18.1 16.5 23.9 14.6 30.2 14.6H38.3C46.6 14.6 53.7 19 57.5 26.1H19.7C15.8 26.1 12.6 28.5 11 31.9C9.8 29.5 10.3 24.7 12.9 20.2Z" fill="__ACCENT__"/>
  <path d="M14.8 31.2H61.9C62.3 31.2 62.6 31.5 62.6 31.9C62.6 33.6 61.2 35 59.5 35H17.5C15 35 12.8 33.2 12.2 30.8C12.9 31.1 13.8 31.2 14.8 31.2Z" fill="#F8FAFC"/>
  <ellipse cx="24" cy="18.5" rx="5.1" ry="2.4" fill="__ACCENT_LIGHT__" opacity=".58"/>
</svg>
