<svg xmlns="http://www.w3.org/2000/svg" width="54" height="44" viewBox="0 0 54 44" fill="none">
  <path d="M14.9 9.5C21.1 6 29.5 6 35 10.6L40.7 15.4C44.7 18.8 45.6 24.6 42.8 29.1L40.1 33.3C37.1 38 31.1 39.8 25.8 37.6L16.7 33.7C9.9 30.8 7.7 22.3 12 16.4L14.9 9.5Z" fill="__SKIN__"/>
  <path d="M18.4 11.8C23.8 8.8 31 8.8 35.8 12.8L39.9 16.2C43.4 19.2 44.2 24.3 41.7 28.2L40 30.9C38.2 27.3 34.7 24.4 30.6 23.1L18.4 19.2C16.2 18.5 14.5 17 13.6 15C14.6 13.7 15.7 12.6 18.4 11.8Z" fill="__SKIN_LIGHT__" opacity=".48"/>
  <path d="M31.4 9.3C35.5 10 39.3 12.1 42.1 15.4C45.1 18.8 46 23.8 44.3 28L42.7 31.9C41.6 28.8 39.3 26.1 36.2 24.4L28.6 20.1C31 18.1 32.4 15.2 32.4 12C32.4 11 32.2 10.1 31.4 9.3Z" fill="__SKIN_SHADE__" opacity=".24"/>
  <circle cx="13.2" cy="16.2" r="5.5" fill="__SKIN__"/>
</svg>
