<svg xmlns="http://www.w3.org/2000/svg" width="48" height="138" viewBox="0 0 48 138" fill="none">
  <defs>
    <linearGradient id="leg-low" x1="24" y1="0" x2="24" y2="138" gradientUnits="userSpaceOnUse">
      <stop offset="0" stop-color="__CLOTH_LIGHT__"/>
      <stop offset=".5" stop-color="__CLOTH__"/>
      <stop offset="1" stop-color="__CLOTH_DEEP__"/>
    </linearGradient>
  </defs>
  <path d="M24 6C31.7 6 37.5 12.1 36.9 20L31.1 119.5C30.7 126.5 25.8 132 20.6 132C14.9 132 10.6 126.5 11 119L16.8 19.8C17.2 11.7 18.2 6 24 6Z" fill="url(#leg-low)"/>
  <path d="M18 10.5C14.9 13.7 12.9 18.6 12.6 24.2L6.9 122.8C6.6 127.7 7.9 131.9 10.3 134.8C7.6 132.7 6 128.7 6.3 123.7L12 24.9C12.4 17.2 17.1 10.9 22.7 9.2C20.8 9.3 19.3 9.8 18 10.5Z" fill="__CLOTH_LIGHT__" opacity=".28"/>
  <path d="M29 8.5C32.8 11.6 35.2 17 34.8 23.4L29.1 122C28.7 127.3 26.7 132.1 23.9 135.2C27.3 132.4 29.8 127 30.3 120.7L36.1 21.9C36.4 16.3 33.7 11.2 29 8.5Z" fill="__CLOTH_DEEP__" opacity=".24"/>
  <ellipse cx="22.9" cy="17.6" rx="10.8" ry="7.3" fill="__CLOTH_LIGHT__" opacity=".46"/>
</svg>
