<svg xmlns="http://www.w3.org/2000/svg" width="116" height="122" viewBox="0 0 116 122" fill="none">
  <path d="M25.2 47.8C25.2 24.5 38.2 10.5 58.1 10.5C70.1 10.5 80.1 15.2 86.5 24.5L93.6 34.9L87.5 36.8C82.8 38.2 78.3 40.6 74.3 43.9L65.6 50.8L61.7 42.2L44.5 50.3C39 52.9 32.3 52.4 27.6 48.8L25.2 47.8Z" fill="__HAIR__"/>
  <path d="M31.6 41.2C35 26.8 45.5 17.5 58 17.5C69.3 17.5 79.2 24 84 35.1L66.4 41.6L61.9 32.3L44.4 44.3C40.3 47.1 35.3 46.9 31.6 41.2Z" fill="__HAIR_SHADE__" opacity=".28"/>
  <path d="M86.2 23.8C92.9 27.5 95.4 34.1 93.8 43.7C92.6 51.2 86.5 57.4 78.7 59.1L69 61.2L87.7 35.1L72.2 39.6L86.2 23.8Z" fill="__HAIR__"/>
</svg>
