<svg xmlns="http://www.w3.org/2000/svg" width="116" height="122" viewBox="0 0 116 122" fill="none">
  <path d="M27.1 49.3C26 28.7 39.3 12.5 57.7 12.5C69.1 12.5 79.3 18.2 85.4 27.6L89.2 33.6C88.2 39.3 85.1 44 80 47.7L74 52L68 45.5C64.4 41.7 59.3 39.5 54.1 39.5H40.9C35.2 39.5 29.8 42.2 27.1 49.3Z" fill="__HAIR__"/>
  <path d="M29.4 46.3C33.2 33.5 43.5 23.2 56.5 20.7C66.2 18.8 75.6 21.4 82.9 28.6C77.5 26.8 72 25.9 66.6 25.9C53.1 25.9 40.7 31.9 29.4 46.3Z" fill="__HAIR_SHADE__" opacity=".24"/>
  <path d="M28.6 50.5C31.2 44.5 36.1 41.4 43.1 41.4H61.6C70.6 41.4 78.9 45.5 84.3 52.6C81.9 59.9 75.1 65 67.4 65H40.1C33.7 65 28.5 59.8 28.6 50.5Z" fill="__HAIR__"/>
</svg>
