<svg xmlns="http://www.w3.org/2000/svg" width="170" height="214" viewBox="0 0 170 214" fill="none">
  <defs>
    <linearGradient id="neutral-shirt" x1="85" y1="0" x2="85" y2="214" gradientUnits="userSpaceOnUse">
      <stop offset="0" stop-color="__CLOTH_LIGHT__"/>
      <stop offset=".5" stop-color="__CLOTH__"/>
      <stop offset="1" stop-color="__CLOTH_SHADE__"/>
    </linearGradient>
  </defs>
  <path d="M45.6 18.9C53.5 11.9 66.6 8.4 85 8.4C103.4 8.4 116.5 11.9 124.4 18.9C131.5 25.2 135.1 35.4 135.1 49.5V135.4C135.1 152.2 130.6 166.4 121.7 177.9C112.8 189.4 100.6 197 85 197C69.4 197 57.2 189.4 48.3 177.9C39.4 166.4 34.9 152.2 34.9 135.4V49.5C34.9 35.4 38.5 25.2 45.6 18.9Z" fill="url(#neutral-shirt)"/>
  <path d="M55.2 22.3C62.3 16.7 72.1 13.9 85 13.9C97.9 13.9 107.7 16.7 114.8 22.3L109.3 41.6C105.8 53.8 94.6 62.2 81.9 62.2H88.1C75.4 62.2 64.2 53.8 60.7 41.6L55.2 22.3Z" fill="__CLOTH_DEEP__" opacity=".14"/>
  <path d="M60.3 34.3C67.1 29.7 75.3 27.4 85 27.4C94.7 27.4 102.9 29.7 109.7 34.3L102.9 49.4C98.2 59.7 87.9 66.3 76.6 66.3H93.4C82.1 66.3 71.8 59.7 67.1 49.4L60.3 34.3Z" fill="#F8FAFC" opacity=".3"/>
  <path d="M55.9 110.8H114.1" stroke="__ACCENT_LIGHT__" stroke-width="5.5" stroke-linecap="round" opacity=".54"/>
  <path d="M65.5 168.6C70.9 174.1 77.4 176.8 85 176.8C92.6 176.8 99.1 174.1 104.5 168.6" stroke="__ACCENT__" stroke-width="5.2" stroke-linecap="round" opacity=".5"/>
</svg>
