<svg xmlns="http://www.w3.org/2000/svg" width="118" height="174" viewBox="0 0 118 174" fill="none">
  <path d="M18 34C21 19.8 31.8 10 46.2 10H71.8C86.2 10 97 19.8 100 34L108 90.5C110.1 106 107.6 121.8 100.8 135.8L94 149.6C91.5 154.7 86.4 158 80.8 158H37.2C31.6 158 26.5 154.7 24 149.6L17.2 135.8C10.4 121.8 7.9 106 10 90.5L18 34Z" fill="white" stroke="black" stroke-width="4.5" stroke-linejoin="round"/>
  <path d="M40 16L59 36L78 16" stroke="black" stroke-width="4.5" stroke-linecap="round" stroke-linejoin="round"/>
  <path d="M59 36V156" stroke="black" stroke-width="3.5" stroke-linecap="round"/>
  <path d="M21 55H97" stroke="black" stroke-width="3.5" stroke-linecap="round"/>
  <circle cx="39" cy="71" r="4" fill="black"/>
  <circle cx="79" cy="71" r="4" fill="black"/>
  <circle cx="32" cy="96" r="4" fill="black"/>
  <circle cx="59" cy="92" r="4" fill="black"/>
  <circle cx="86" cy="96" r="4" fill="black"/>
</svg>
